<svg viewBox="0 0 512 512" xmlns="http://www.w3.org/2000/svg" xmlns:xlink="http://www.w3.org/1999/xlink"><linearGradient id="a" gradientTransform="matrix(1 0 0 -1 0 -20854)" gradientUnits="userSpaceOnUse" x1="0" x2="512" y1="-21110" y2="-21110"><stop offset="0" stop-color="#00f1ff"/><stop offset=".231" stop-color="#00d8ff"/><stop offset=".5138" stop-color="#00c0ff"/><stop offset=".7773" stop-color="#00b2ff"/><stop offset="1" stop-color="#00adff"/></linearGradient><path d="m512 256c0 141.386719-114.613281 256-256 256s-256-114.613281-256-256 114.613281-256 256-256 256 114.613281 256 256zm0 0" fill="url(#a)"/><g fill="#fff"><path d="m328.589844 428.5h-143.179688c-55.640625 0-100.910156-45.269531-100.910156-100.910156v-143.179688c0-55.640625 45.269531-100.910156 100.910156-100.910156h143.179688c55.644531 0 100.910156 45.269531 100.910156 100.910156v129.652344c0 8.28125-6.714844 15-15 15s-15-6.71875-15-15v-129.652344c0-39.101562-31.808594-70.910156-70.910156-70.910156h-143.179688c-39.101562 0-70.910156 31.808594-70.910156 70.910156v143.179688c0 39.101562 31.808594 70.910156 70.910156 70.910156h143.179688c22.382812 0 42.984375-10.242188 56.535156-28.101562 5.007812-6.601563 14.414062-7.890626 21.015625-2.886719 6.601563 5.007812 7.890625 14.417969 2.886719 21.019531-19.273438 25.402344-48.589844 39.96875-80.4375 39.96875zm0 0"/><path d="m257 349.75c-51.695312 0-93.75-42.054688-93.75-93.75s42.054688-93.75 93.75-93.75 93.75 42.054688 93.75 93.75-42.054688 93.75-93.75 93.75zm0-157.5c-35.152344 0-63.75 28.597656-63.75 63.75s28.597656 63.75 63.75 63.75 63.75-28.597656 63.75-63.75-28.597656-63.75-63.75-63.75zm0 0"/><path d="m363.777344 162.566406c0 7.371094-5.972656 13.347656-13.34375 13.347656s-13.347656-5.976562-13.347656-13.347656 5.976562-13.34375 13.347656-13.34375 13.34375 5.972656 13.34375 13.34375zm0 0"/></g></svg>